<svg version="1.1" width="1000" height="1000" xmlns="http://www.w3.org/2000/svg" xmlns:xlink="http://www.w3.org/1999/xlink" id="svg29" overflow="hidden"><defs id="defs33"></defs><g id="g5"><rect x="-1" y="-1" width="1002" height="1002" id="canvas_background" fill="none"/></g><g id="g4377" transform="matrix(1,0,0,1,0,-71.7767)"><path d=" M 110.081 541.898 L 192.956 443.132 C 192.956 443.132 232.048 417.657 277.243 453.25 C 322.438 488.843 300.554 537.149 300.554 537.149 L 218.83 634.544" id="svg_2" stroke="#010101" stroke-width="0" fill="#750A6A"/><path d=" M 128.454 557.784 L 210.178 460.39 L 221.942 470.261 L 230.972 495.071 L 227.309 505.536 L 207.944 498.611 L 145.961 572.479 L 128.452 557.787 Z" id="svg_3" stroke="#010101" stroke-width="0" fill="#818180"/><path d=" M 234.308 478.304 L 287.11 522.61 L 204.236 621.376 L 177.152 598.649 L 184.954 563.237 L 220.078 521.378 L 246.446 512.733 L 234.307 478.305 Z" id="svg_4" stroke="#010101" stroke-width="0" fill="#818180"/><path d=" M 104.028 586.894 L -49.0969 769.381 L -30.4928 784.992 L 122.632 602.505 Z" id="svg_5" stroke="#010101" stroke-width="0" fill="#818180"/><path d=" M 152.64 626.744 L 48.4181 750.951 L 67.0215 766.561 L 171.243 642.354 Z" id="svg_6" stroke="#010101" stroke-width="0" fill="#818180"/><path d=" M 90.703 524.802 L 65.4511 554.896 L 212.095 677.945 L 236.887 648.399 Z" id="svg_1" stroke="#010101" stroke-width="0" fill="#7F007F"/></g><line x1="328.667" y1="364.89" x2="407.333" y2="319.557" id="svg_7" stroke="#000000" stroke-width="10" fill="none"/><line x1="456.667" y1="307.557" x2="552.667" y2="284.89" id="svg_8" stroke="#000000" stroke-width="10" fill="none"/><line x1="610" y1="284.89" x2="706" y2="298.223" id="svg_9" stroke="#000000" stroke-width="10" fill="none"/><g id="g4384" transform="matrix(1,0,0,1,0,-71.7767)"><path d=" M 797.333 570 L 797.333 808.22 L 821.619 808.22 L 821.619 570 Z" id="svg_12" stroke="#010101" stroke-width="0" fill="#818180"/><path d=" M 837.333 570 L 837.333 808.22 L 861.619 808.22 L 861.619 570 Z" id="svg_13" stroke="#010101" stroke-width="0" fill="#818180"/><path d=" M 877.333 570 L 877.333 808.22 L 901.619 808.22 L 901.619 570 Z" id="svg_14" stroke="#010101" stroke-width="0" fill="#818180"/><rect x="787.333" y="335.333" width="122.667" height="245.333" id="svg_10" stroke="#000000" stroke-width="0" fill="#281535"/><circle cx="849.333" cy="396" r="50" id="svg_11" stroke="#000000" stroke-width="0" fill="#8136AC" fill-opacity="1"/><text id="svg_16" stroke="#000000" stroke-width="0" fill="#7D268E" font-family="helvetica,arial,arial" font-size="333.862" text-anchor="start" transform="matrix(0.830937,0,0,1.20346,0,0)" x="465.521" y="660.328">IR</text><text id="svg_22" stroke="#000000" stroke-width="0" fill="#50185B" font-family="helvetica,arial,arial" font-size="57.7716" text-anchor="start" x="364.778" y="875.272">Übertragung</text></g></svg>